<svg preserveAspectRatio="none" overflow="visible" style="display: block;" width="11.9036" height="12.2422" viewBox="0 0 11.9036 12.2422" fill="none" xmlns="http://www.w3.org/2000/svg">
<g id="Image" clip-path="url(#clip0_0_4)">
<path id="Vector" d="M8.18505 0.839687L8.13919 0.974791C7.81951 1.91928 7.483 2.81957 7.1107 3.72576C5.71624 7.01253 4.3752 8.99576 3.33493 9.31022C3.09432 9.38301 2.85539 9.36152 2.66147 9.25002C2.45998 9.13385 2.31527 8.92843 2.25428 8.67128C1.95393 7.4052 2.39099 5.81089 2.74265 4.52967L2.74434 4.52335C3.14438 3.19122 3.62939 1.88098 4.22798 0.5177L4.31968 0.308516L2.07845 0L2.02628 0.120376C-0.213262 5.31337 -0.196857 8.03529 0.211174 9.40446C0.579242 10.6398 1.61573 11.4513 2.91554 11.5216C2.96938 11.5245 3.02281 11.5258 3.07581 11.5258C6.1495 11.5258 8.18002 6.70993 8.85217 5.11513L9.1597 4.45854L7.7602 11.9303L10.0359 12.2422L11.9036 1.35107L8.18419 0.839263L8.18505 0.839687Z" fill="black"/>
</g>
<defs>
<clipPath id="clip0_0_4">
<rect width="11.9036" height="12.2422" fill="white"/>
</clipPath>
</defs>
</svg>
